<mxfile host="app.diagrams.net" modified="2024-09-06T07:08:54.085Z" agent="Mozilla/5.0 (Macintosh; Intel Mac OS X 10.15; rv:129.0) Gecko/20100101 Firefox/129.0" etag="wUTqUwCTVT7RLBnMkX4M" version="24.5.5" type="github">
  <diagram name="Page-1" id="4Jioflp6mPC1VqLNQQG0">
    <mxGraphModel dx="1026" dy="585" grid="1" gridSize="10" guides="1" tooltips="1" connect="1" arrows="1" fold="1" page="1" pageScale="1" pageWidth="850" pageHeight="1100" math="0" shadow="0">
      <root>
        <mxCell id="0" />
        <mxCell id="1" parent="0" />
        <mxCell id="bRZXsDWAL-ojzYbplzxd-2" value="VPC" style="sketch=0;outlineConnect=0;gradientColor=none;html=1;whiteSpace=wrap;fontSize=12;fontStyle=0;shape=mxgraph.aws4.group;grIcon=mxgraph.aws4.group_vpc;strokeColor=#879196;fillColor=none;verticalAlign=top;align=left;spacingLeft=30;fontColor=#879196;dashed=0;" vertex="1" parent="1">
          <mxGeometry x="160" y="360" width="320" height="185" as="geometry" />
        </mxCell>
        <mxCell id="bRZXsDWAL-ojzYbplzxd-1" value="AWS Region" style="sketch=0;outlineConnect=0;gradientColor=none;html=1;whiteSpace=wrap;fontSize=12;fontStyle=0;shape=mxgraph.aws4.group;grIcon=mxgraph.aws4.group_region;strokeColor=#879196;fillColor=none;verticalAlign=top;align=left;spacingLeft=30;fontColor=#879196;dashed=1;" vertex="1" parent="1">
          <mxGeometry x="140" y="240" width="630" height="320" as="geometry" />
        </mxCell>
        <mxCell id="bRZXsDWAL-ojzYbplzxd-25" value="Private Subnet" style="points=[[0,0],[0.25,0],[0.5,0],[0.75,0],[1,0],[1,0.25],[1,0.5],[1,0.75],[1,1],[0.75,1],[0.5,1],[0.25,1],[0,1],[0,0.75],[0,0.5],[0,0.25]];outlineConnect=0;gradientColor=none;html=1;whiteSpace=wrap;fontSize=12;fontStyle=0;container=1;pointerEvents=0;collapsible=0;recursiveResize=0;shape=mxgraph.aws4.group;grIcon=mxgraph.aws4.group_security_group;grStroke=0;strokeColor=#7AA116;fillColor=#F2F6E8;verticalAlign=top;align=left;spacingLeft=30;fontColor=#248814;dashed=0;" vertex="1" parent="1">
          <mxGeometry x="170" y="397" width="130" height="130" as="geometry" />
        </mxCell>
        <mxCell id="bRZXsDWAL-ojzYbplzxd-3" value="EC2" style="sketch=0;points=[[0,0,0],[0.25,0,0],[0.5,0,0],[0.75,0,0],[1,0,0],[0,1,0],[0.25,1,0],[0.5,1,0],[0.75,1,0],[1,1,0],[0,0.25,0],[0,0.5,0],[0,0.75,0],[1,0.25,0],[1,0.5,0],[1,0.75,0]];outlineConnect=0;fontColor=#232F3E;fillColor=#ED7100;strokeColor=#ffffff;dashed=0;verticalLabelPosition=bottom;verticalAlign=top;align=center;html=1;fontSize=12;fontStyle=0;aspect=fixed;shape=mxgraph.aws4.resourceIcon;resIcon=mxgraph.aws4.ec2;" vertex="1" parent="bRZXsDWAL-ojzYbplzxd-25">
          <mxGeometry x="20" y="43" width="58" height="58" as="geometry" />
        </mxCell>
        <mxCell id="bRZXsDWAL-ojzYbplzxd-14" style="edgeStyle=orthogonalEdgeStyle;rounded=0;orthogonalLoop=1;jettySize=auto;html=1;" edge="1" parent="1" source="bRZXsDWAL-ojzYbplzxd-3" target="bRZXsDWAL-ojzYbplzxd-24">
          <mxGeometry relative="1" as="geometry">
            <Array as="points">
              <mxPoint x="280" y="469" />
            </Array>
          </mxGeometry>
        </mxCell>
        <mxCell id="bRZXsDWAL-ojzYbplzxd-4" value="S3 Bucket" style="sketch=0;points=[[0,0,0],[0.25,0,0],[0.5,0,0],[0.75,0,0],[1,0,0],[0,1,0],[0.25,1,0],[0.5,1,0],[0.75,1,0],[1,1,0],[0,0.25,0],[0,0.5,0],[0,0.75,0],[1,0.25,0],[1,0.5,0],[1,0.75,0]];outlineConnect=0;fontColor=#232F3E;fillColor=#7AA116;strokeColor=#ffffff;dashed=0;verticalLabelPosition=bottom;verticalAlign=top;align=center;html=1;fontSize=12;fontStyle=0;aspect=fixed;shape=mxgraph.aws4.resourceIcon;resIcon=mxgraph.aws4.s3;" vertex="1" parent="1">
          <mxGeometry x="553.5" y="378.5" width="71.5" height="71.5" as="geometry" />
        </mxCell>
        <mxCell id="bRZXsDWAL-ojzYbplzxd-6" value="" style="html=1;shadow=0;dashed=0;align=center;verticalAlign=middle;shape=mxgraph.arrows2.arrow;dy=0.6;dx=40;direction=south;notch=0;fillColor=#d5e8d4;strokeColor=#82b366;" vertex="1" parent="1">
          <mxGeometry x="260" y="115" width="25" height="195" as="geometry" />
        </mxCell>
        <mxCell id="bRZXsDWAL-ojzYbplzxd-7" value="Internet" style="outlineConnect=0;dashed=0;verticalLabelPosition=bottom;verticalAlign=top;align=center;html=1;shape=mxgraph.aws3.internet_3;fillColor=#D2D3D3;gradientColor=none;" vertex="1" parent="1">
          <mxGeometry x="238.5" y="30" width="79.5" height="54" as="geometry" />
        </mxCell>
        <mxCell id="bRZXsDWAL-ojzYbplzxd-8" value="Incoming data is &lt;b&gt;FREE&lt;/b&gt;" style="text;html=1;align=center;verticalAlign=middle;whiteSpace=wrap;rounded=0;rotation=0;" vertex="1" parent="1">
          <mxGeometry x="130" y="145" width="130" height="30" as="geometry" />
        </mxCell>
        <mxCell id="bRZXsDWAL-ojzYbplzxd-9" value="" style="html=1;shadow=0;dashed=0;align=center;verticalAlign=middle;shape=mxgraph.arrows2.arrow;dy=0.6;dx=40;direction=south;notch=0;fillColor=#e51400;strokeColor=#B20000;rotation=-180;fontColor=#ffffff;" vertex="1" parent="1">
          <mxGeometry x="285" y="110" width="25" height="200" as="geometry" />
        </mxCell>
        <mxCell id="bRZXsDWAL-ojzYbplzxd-12" value="IGW" style="text;html=1;align=center;verticalAlign=middle;whiteSpace=wrap;rounded=0;" vertex="1" parent="1">
          <mxGeometry x="285" y="378" width="60" height="30" as="geometry" />
        </mxCell>
        <mxCell id="bRZXsDWAL-ojzYbplzxd-13" value="" style="sketch=0;outlineConnect=0;fontColor=#232F3E;gradientColor=none;fillColor=#8C4FFF;strokeColor=none;dashed=0;verticalLabelPosition=bottom;verticalAlign=top;align=center;html=1;fontSize=12;fontStyle=0;aspect=fixed;pointerEvents=1;shape=mxgraph.aws4.internet_gateway;" vertex="1" parent="1">
          <mxGeometry x="270" y="330" width="48" height="48" as="geometry" />
        </mxCell>
        <mxCell id="bRZXsDWAL-ojzYbplzxd-15" value="&lt;b&gt;Public Subnet&lt;/b&gt;: 0.05 per GB from IGW directly" style="text;html=1;align=center;verticalAlign=middle;whiteSpace=wrap;rounded=0;rotation=0;" vertex="1" parent="1">
          <mxGeometry x="310" y="140" width="170" height="30" as="geometry" />
        </mxCell>
        <mxCell id="bRZXsDWAL-ojzYbplzxd-17" value="Internet" style="outlineConnect=0;dashed=0;verticalLabelPosition=bottom;verticalAlign=top;align=center;html=1;shape=mxgraph.aws3.internet_3;fillColor=#D2D3D3;gradientColor=none;" vertex="1" parent="1">
          <mxGeometry x="545.5" y="30" width="79.5" height="54" as="geometry" />
        </mxCell>
        <mxCell id="bRZXsDWAL-ojzYbplzxd-18" value="" style="html=1;shadow=0;dashed=0;align=center;verticalAlign=middle;shape=mxgraph.arrows2.arrow;dy=0.6;dx=40;direction=south;notch=0;fillColor=#d5e8d4;strokeColor=#82b366;" vertex="1" parent="1">
          <mxGeometry x="554.5" y="120" width="25" height="250" as="geometry" />
        </mxCell>
        <mxCell id="bRZXsDWAL-ojzYbplzxd-19" value="" style="html=1;shadow=0;dashed=0;align=center;verticalAlign=middle;shape=mxgraph.arrows2.arrow;dy=0.6;dx=40;direction=south;notch=0;fillColor=#e51400;strokeColor=#B20000;rotation=-180;fontColor=#ffffff;" vertex="1" parent="1">
          <mxGeometry x="600" y="110" width="25" height="250" as="geometry" />
        </mxCell>
        <mxCell id="bRZXsDWAL-ojzYbplzxd-21" value="Incoming data is &lt;b&gt;FREE&lt;/b&gt;" style="text;html=1;align=center;verticalAlign=middle;whiteSpace=wrap;rounded=0;rotation=0;" vertex="1" parent="1">
          <mxGeometry x="423.5" y="270" width="130" height="30" as="geometry" />
        </mxCell>
        <mxCell id="bRZXsDWAL-ojzYbplzxd-22" value="0.05 to 0,09 per GB" style="text;html=1;align=center;verticalAlign=middle;whiteSpace=wrap;rounded=0;rotation=0;" vertex="1" parent="1">
          <mxGeometry x="620" y="270" width="130" height="30" as="geometry" />
        </mxCell>
        <mxCell id="bRZXsDWAL-ojzYbplzxd-27" value="" style="endArrow=classic;html=1;rounded=0;entryX=0;entryY=0;entryDx=0;entryDy=0;" edge="1" parent="1" source="bRZXsDWAL-ojzYbplzxd-24" target="bRZXsDWAL-ojzYbplzxd-12">
          <mxGeometry width="50" height="50" relative="1" as="geometry">
            <mxPoint x="430" y="360" as="sourcePoint" />
            <mxPoint x="480" y="310" as="targetPoint" />
          </mxGeometry>
        </mxCell>
        <mxCell id="bRZXsDWAL-ojzYbplzxd-28" value="Public Subnet" style="points=[[0,0],[0.25,0],[0.5,0],[0.75,0],[1,0],[1,0.25],[1,0.5],[1,0.75],[1,1],[0.75,1],[0.5,1],[0.25,1],[0,1],[0,0.75],[0,0.5],[0,0.25]];outlineConnect=0;gradientColor=none;html=1;whiteSpace=wrap;fontSize=12;fontStyle=0;container=1;pointerEvents=0;collapsible=0;recursiveResize=0;shape=mxgraph.aws4.group;grIcon=mxgraph.aws4.group_security_group;grStroke=0;strokeColor=#7AA116;fillColor=#F2F6E8;verticalAlign=top;align=left;spacingLeft=30;fontColor=#248814;dashed=0;" vertex="1" parent="1">
          <mxGeometry x="350" y="400" width="120" height="124" as="geometry" />
        </mxCell>
        <mxCell id="bRZXsDWAL-ojzYbplzxd-29" value="EC2" style="sketch=0;points=[[0,0,0],[0.25,0,0],[0.5,0,0],[0.75,0,0],[1,0,0],[0,1,0],[0.25,1,0],[0.5,1,0],[0.75,1,0],[1,1,0],[0,0.25,0],[0,0.5,0],[0,0.75,0],[1,0.25,0],[1,0.5,0],[1,0.75,0]];outlineConnect=0;fontColor=#232F3E;fillColor=#ED7100;strokeColor=#ffffff;dashed=0;verticalLabelPosition=bottom;verticalAlign=top;align=center;html=1;fontSize=12;fontStyle=0;aspect=fixed;shape=mxgraph.aws4.resourceIcon;resIcon=mxgraph.aws4.ec2;" vertex="1" parent="bRZXsDWAL-ojzYbplzxd-28">
          <mxGeometry x="30" y="40" width="58" height="58" as="geometry" />
        </mxCell>
        <mxCell id="bRZXsDWAL-ojzYbplzxd-24" value="NAT Gateway" style="sketch=0;outlineConnect=0;fontColor=#232F3E;gradientColor=none;fillColor=#8C4FFF;strokeColor=none;dashed=0;verticalLabelPosition=bottom;verticalAlign=top;align=center;html=1;fontSize=12;fontStyle=0;aspect=fixed;pointerEvents=1;shape=mxgraph.aws4.nat_gateway;" vertex="1" parent="1">
          <mxGeometry x="318" y="440" width="45" height="45" as="geometry" />
        </mxCell>
        <mxCell id="bRZXsDWAL-ojzYbplzxd-32" value="" style="endArrow=classic;html=1;rounded=0;exitX=0.5;exitY=0;exitDx=0;exitDy=0;exitPerimeter=0;" edge="1" parent="1" source="bRZXsDWAL-ojzYbplzxd-29" target="bRZXsDWAL-ojzYbplzxd-13">
          <mxGeometry width="50" height="50" relative="1" as="geometry">
            <mxPoint x="303" y="457" as="sourcePoint" />
            <mxPoint x="304" y="388" as="targetPoint" />
          </mxGeometry>
        </mxCell>
        <mxCell id="bRZXsDWAL-ojzYbplzxd-34" value="&lt;div&gt;&lt;b&gt;Private Subne&lt;/b&gt;t: &lt;span&gt;&lt;span&gt;&lt;span&gt;&lt;span&gt;0.048 per GB from NAT Gateway &lt;br&gt;&lt;/span&gt;&lt;/span&gt;&lt;/span&gt;&lt;/span&gt;&lt;/div&gt;&lt;div&gt;&lt;span&gt;&lt;span&gt;&lt;span&gt;&lt;span&gt;PLUS 0.05 per GB for IGW&lt;br&gt;&lt;/span&gt;&lt;/span&gt;&lt;/span&gt;&lt;/span&gt;&lt;/div&gt;&lt;div&gt;&lt;span&gt;&lt;span&gt;&lt;span&gt;&lt;span&gt;&lt;/span&gt;&lt;/span&gt;&lt;/span&gt;&lt;/span&gt;&lt;/div&gt;" style="text;whiteSpace=wrap;html=1;" vertex="1" parent="1">
          <mxGeometry x="318" y="190" width="190" height="40" as="geometry" />
        </mxCell>
      </root>
    </mxGraphModel>
  </diagram>
</mxfile>
